<svg width="20" height="19" viewBox="0 0 20 19" fill="none" xmlns="http://www.w3.org/2000/svg">
<path d="M10 18.35L8.55 17.03C3.4 12.36 0 9.28 0 5.5C0 2.42 2.42 0 5.5 0C7.24 0 8.91 0.81 10 2.09C11.09 0.81 12.76 0 14.5 0C17.58 0 20 2.42 20 5.5C20 9.28 16.6 12.36 11.45 17.04L10 18.35Z" fill="black"/>
<mask id="mask0_3_18" style="mask-type:alpha" maskUnits="userSpaceOnUse" x="0" y="0" width="20" height="19">
<path d="M10 18.35L8.55 17.03C3.4 12.36 0 9.28 0 5.5C0 2.42 2.42 0 5.5 0C7.24 0 8.91 0.81 10 2.09C11.09 0.81 12.76 0 14.5 0C17.58 0 20 2.42 20 5.5C20 9.28 16.6 12.36 11.45 17.04L10 18.35Z" fill="black"/>
</mask>
<g mask="url(#mask0_3_18)">
<rect x="14" y="6" width="2" height="8" rx="1" fill="white"/>
<rect x="19" y="9" width="2" height="8" rx="1" transform="rotate(90 19 9)" fill="white"/>
</g>
</svg>
